<?xml version="1.0" encoding="UTF-8" standalone="no"?>
<svg
   version="1.1"
   width="267"
   height="267"
   viewBox="0 0 267 267"
   xml:space="preserve"
   id="svg1"
   sodipodi:docname="catppuccin_mocha_saphhire_roblox_logo.svg"
   inkscape:version="1.3.2 (091e20e, 2023-11-25, custom)"
   xmlns:inkscape="http://www.inkscape.org/namespaces/inkscape"
   xmlns:sodipodi="http://sodipodi.sourceforge.net/DTD/sodipodi-0.dtd"
   xmlns="http://www.w3.org/2000/svg"
   xmlns:svg="http://www.w3.org/2000/svg"><sodipodi:namedview
   id="namedview1"
   pagecolor="#505050"
   bordercolor="#ffffff"
   borderopacity="1"
   inkscape:showpageshadow="0"
   inkscape:pageopacity="0"
   inkscape:pagecheckerboard="1"
   inkscape:deskcolor="#505050"
   inkscape:zoom="3.2247191"
   inkscape:cx="182.65157"
   inkscape:cy="111.79268"
   inkscape:window-width="1920"
   inkscape:window-height="1057"
   inkscape:window-x="-8"
   inkscape:window-y="-8"
   inkscape:window-maximized="1"
   inkscape:current-layer="svg1" />
<desc
   id="desc1">Created with Fabric.js 3.6.6</desc>
<defs
   id="defs1">
</defs>

<g
   transform="matrix(1 0 0 1 36.76 413.28)"
   id="svg_2">
<polyline
   style="stroke: rgb(116,199,236); stroke-width: 0; stroke-dasharray: none; stroke-linecap: butt; stroke-dashoffset: 0; stroke-linejoin: miter; stroke-miterlimit: 4; fill: none; fill-rule: nonzero; opacity: 1;"
   points="-8.7,-12.59 -13.52,-20.74 -12.41,-21.11 -11.67,-21.48 -10.56,-21.48 -8.7,-21.48 -7.22,-21.48 -5.74,-21.48 -5,-21.11 -3.52,-20.74 -2.78,-20.74 -2.04,-20.37 -2.04,-20.37 -0.93,-19.26 0.19,-18.52 0.93,-17.78 1.67,-16.67 2.41,-15.56 3.15,-14.81 3.52,-13.7 3.89,-12.59 8.7,4.81 9.44,7.78 10.93,14.07 11.67,16.67 12.04,17.78 12.41,18.89 13.15,20.37 13.15,21.11 13.52,21.11 13.52,21.48 "
   id="polyline1"
   inkscape:label="polyline1" />
</g>
<g
   transform="matrix(4.39 0 0 4.39 133.58 133.61)"
   id="g1">
<path
   style="stroke:none;stroke-width:1;stroke-dasharray:none;stroke-linecap:butt;stroke-dashoffset:0;stroke-linejoin:miter;stroke-miterlimit:4;fill:#74c7ec;fill-rule:nonzero;opacity:1;fill-opacity:1"
   transform=" translate(-73.13, -26.88)"
   d="M 57.6 0 L 46.26 42.4 l 42.4 11.35 L 100 11.35 Z m 11.2 19.47 l 11.83 3.17 l -3.17 11.83 l -11.84 -3.17 z"
   stroke-linecap="round"
   id="path1"
   inkscape:label="path1" />
</g>
</svg>
