<?xml version="1.0" encoding="UTF-8" standalone="no"?>
<svg
   viewBox="52 42 88 66"
   version="1.1"
   id="svg5"
   sodipodi:docname="catppuccin_mocha_saphhire_gmail_logo.svg"
   inkscape:version="1.3.2 (091e20e, 2023-11-25, custom)"
   xmlns:inkscape="http://www.inkscape.org/namespaces/inkscape"
   xmlns:sodipodi="http://sodipodi.sourceforge.net/DTD/sodipodi-0.dtd"
   xmlns="http://www.w3.org/2000/svg"
   xmlns:svg="http://www.w3.org/2000/svg">
  <defs
     id="defs5" />
  <sodipodi:namedview
     id="namedview5"
     pagecolor="#ffffff"
     bordercolor="#000000"
     borderopacity="0.25"
     inkscape:showpageshadow="2"
     inkscape:pageopacity="0.0"
     inkscape:pagecheckerboard="0"
     inkscape:deskcolor="#d1d1d1"
     inkscape:zoom="13.106061"
     inkscape:cx="44.025434"
     inkscape:cy="33"
     inkscape:window-width="1920"
     inkscape:window-height="1057"
     inkscape:window-x="-8"
     inkscape:window-y="-8"
     inkscape:window-maximized="1"
     inkscape:current-layer="svg5" />
  <path
     fill="#4285f4"
     d="M58 108h14V74L52 59v43c0 3.32 2.69 6 6 6"
     id="path1"
     style="fill:#74c7ec;fill-opacity:1" />
  <path
     fill="#34a853"
     d="m 120,108 h 14 c 3.32,0 6,-2.69419 6,-6.00934 V 58.923699 l -20,15.023358"
     id="path2"
     style="fill:#74c7ec;fill-opacity:1;stroke-width:1.00078" />
  <path
     fill="#fbbc04"
     d="M120 48v26l20-15v-8c0-7.42-8.47-11.65-14.4-7.2"
     id="path3"
     style="fill:#74c7ec;fill-opacity:1" />
  <path
     fill="#ea4335"
     d="M 71.694798,74 V 48 L 96,66 120.3052,48 V 74 L 96,92"
     id="path4"
     style="fill:#74c7ec;fill-opacity:1;stroke-width:1.00633" />
  <path
     fill="#c5221f"
     d="m 52,51.021489 v 8.019065 L 72,74.076301 V 48.014339 L 66.4,43.80433 C 60.46,39.343725 52,43.583806 52,51.021489"
     id="path5"
     style="fill:#74c7ec;fill-opacity:1;stroke-width:1.00119" />
</svg>
