<?xml version="1.0" encoding="UTF-8" standalone="no"?>
<svg
   viewBox="52 42 88 66"
   version="1.1"
   id="svg5"
   sodipodi:docname="catppuccin_mocha_saphhire_gmail_logo.svg"
   inkscape:version="1.3.2 (091e20e, 2023-11-25, custom)"
   xmlns:inkscape="http://www.inkscape.org/namespaces/inkscape"
   xmlns:sodipodi="http://sodipodi.sourceforge.net/DTD/sodipodi-0.dtd"
   xmlns="http://www.w3.org/2000/svg"
   xmlns:svg="http://www.w3.org/2000/svg">
  <defs
     id="defs5" />
  <sodipodi:namedview
     id="namedview5"
     pagecolor="#ffffff"
     bordercolor="#000000"
     borderopacity="0.25"
     inkscape:showpageshadow="2"
     inkscape:pageopacity="0.0"
     inkscape:pagecheckerboard="0"
     inkscape:deskcolor="#d1d1d1"
     inkscape:zoom="8"
     inkscape:cx="-7.625"
     inkscape:cy="44.5625"
     inkscape:window-width="1920"
     inkscape:window-height="1057"
     inkscape:window-x="-8"
     inkscape:window-y="-8"
     inkscape:window-maximized="1"
     inkscape:current-layer="svg5" />
  <path
     fill="#4285f4"
     d="M58 108h14V74L52 59v43c0 3.32 2.69 6 6 6"
     id="path1"
     style="fill:#74c7ec;fill-opacity:1" />
  <path
     fill="#34a853"
     d="m 120,108 h 14 c 3.32,0 6,-2.69 6,-6 V 59 c -8.64644,5.200084 -50.680377,13.774435 -20,15"
     id="path2"
     style="fill:#74c7ec;fill-opacity:1"
     sodipodi:nodetypes="csscc" />
  <path
     fill="#fbbc04"
     d="m 120,48 c -22.479997,17.275042 -15.82993,21.871747 0,26 8.76205,-6.020715 13.3693,-9.964031 20.05395,-14.946047 L 140,51 c -0.0497,-7.419834 -8.47,-11.65 -14.4,-7.2"
     id="path3"
     style="fill:#74c7ec;fill-opacity:1"
     sodipodi:nodetypes="cccsc" />
  <path
     fill="#ea4335"
     d="M72 74V48l24 18 24-18v26L96 92"
     id="path4"
     style="fill:#74c7ec;fill-opacity:1" />
  <path
     fill="#c5221f"
     d="m 52,51 v 8 c -0.273643,21.440125 8.523349,21.41734 20,15.053953 12.400001,-5.549273 33.42797,-3.727627 0.107902,-25.946047 L 66.4,43.8 C 60.46,39.35 52,43.58 52,51"
     id="path5"
     style="fill:#74c7ec;fill-opacity:1"
     sodipodi:nodetypes="cccccc" />
</svg>
